<?xml version="1.0" encoding="utf-8"?>
<!-- Generator: Adobe Illustrator 26.3.1, SVG Export Plug-In . SVG Version: 6.00 Build 0)  -->
<svg version="1.1" id="Capa_1" xmlns:serif="http://www.serif.com/"
	 xmlns="http://www.w3.org/2000/svg" xmlns:xlink="http://www.w3.org/1999/xlink" x="0px" y="0px" viewBox="0 0 48 48"
	 style="enable-background:new 0 0 48 48;" xml:space="preserve">
<style type="text/css">
	.st0{fill-rule:evenodd;clip-rule:evenodd;fill:#EDEDED;}
</style>
<path class="st0" d="M42.1,0C45.4,0,48,2.6,48,5.9v36.3c0,3.2-2.6,5.9-5.9,5.9H5.9C2.6,48,0,45.4,0,42.1V5.9C0,2.6,2.6,0,5.9,0H42.1
	L42.1,0z M24,7.6c-4.5,0-5,0-6.8,0.1c-1.7,0.1-2.9,0.4-4,0.8c-1.1,0.4-2,1-2.9,1.9c-0.9,0.9-1.5,1.8-1.9,2.9c-0.4,1-0.7,2.2-0.8,4
	S7.6,19.5,7.6,24s0,5,0.1,6.8c0.1,1.7,0.4,2.9,0.8,4c0.4,1.1,1,2,1.9,2.9c0.9,0.9,1.8,1.5,2.9,1.9c1,0.4,2.2,0.7,4,0.8
	c1.7,0.1,2.3,0.1,6.8,0.1s5,0,6.8-0.1c1.7-0.1,2.9-0.4,4-0.8c1.1-0.4,2-1,2.9-1.9c0.9-0.9,1.5-1.8,1.9-2.9c0.4-1,0.7-2.2,0.8-4
	c0.1-1.7,0.1-2.3,0.1-6.8s0-5-0.1-6.8c-0.1-1.7-0.4-2.9-0.8-4c-0.4-1.1-1-2-1.9-2.9c-0.9-0.9-1.8-1.5-2.9-1.9c-1-0.4-2.2-0.7-4-0.8
	C29,7.6,28.5,7.6,24,7.6z M24,10.6c4.4,0,4.9,0,6.6,0.1c1.6,0.1,2.5,0.3,3,0.6c0.8,0.3,1.3,0.7,1.9,1.2s0.9,1.1,1.2,1.9
	c0.2,0.6,0.5,1.4,0.6,3c0.1,1.7,0.1,2.2,0.1,6.6s0,4.9-0.1,6.6c-0.1,1.6-0.3,2.5-0.6,3c-0.3,0.8-0.7,1.3-1.2,1.9s-1.1,0.9-1.9,1.2
	c-0.6,0.2-1.4,0.5-3,0.6c-1.7,0.1-2.2,0.1-6.6,0.1s-4.9,0-6.6-0.1c-1.6-0.1-2.5-0.3-3-0.6c-0.8-0.3-1.3-0.7-1.9-1.2
	s-0.9-1.1-1.2-1.9c-0.2-0.6-0.5-1.4-0.6-3c-0.1-1.7-0.1-2.2-0.1-6.6s0-4.9,0.1-6.6c0.1-1.6,0.3-2.5,0.6-3c0.3-0.8,0.7-1.3,1.2-1.9
	s1.1-0.9,1.9-1.2c0.6-0.2,1.4-0.5,3-0.6C19.1,10.6,19.6,10.6,24,10.6L24,10.6z M24,15.6c-4.7,0-8.4,3.8-8.4,8.4s3.8,8.4,8.4,8.4
	s8.4-3.8,8.4-8.4S28.7,15.6,24,15.6L24,15.6z M24,29.5c-3,0-5.5-2.4-5.5-5.5s2.4-5.5,5.5-5.5s5.5,2.4,5.5,5.5S27,29.5,24,29.5z
	 M34.7,15.2c0,1.1-0.9,2-2,2c-1.1,0-2-0.9-2-2s0.9-2,2-2C33.8,13.3,34.7,14.2,34.7,15.2L34.7,15.2z"/>
</svg>
