<?xml version="1.0" encoding="utf-8"?>
<!-- Generator: Adobe Illustrator 26.3.1, SVG Export Plug-In . SVG Version: 6.00 Build 0)  -->
<svg version="1.1" id="Capa_1" xmlns:serif="http://www.serif.com/"
	 xmlns="http://www.w3.org/2000/svg" xmlns:xlink="http://www.w3.org/1999/xlink" x="0px" y="0px" viewBox="0 0 500 500"
	 style="enable-background:new 0 0 500 500;" xml:space="preserve">
<style type="text/css">
	.st0{fill-rule:evenodd;clip-rule:evenodd;fill:#EDEDED;}
</style>
<path class="st0" d="M438.9,0C472.6,0,500,27.4,500,61.1v377.8c0,33.7-27.4,61.1-61.1,61.1H61.1C27.4,500,0,472.6,0,438.9V61.1
	C0,27.4,27.4,0,61.1,0L438.9,0L438.9,0z M156.7,413.4V192.9H83.4v220.4H156.7z M420.9,413.4V287c0-67.7-36.2-99.2-84.4-99.2
	c-38.9,0-56.3,21.4-66,36.4v-31.2h-73.3c1,20.7,0,220.4,0,220.4h73.3V290.3c0-6.6,0.5-13.2,2.4-17.9c5.3-13.2,17.4-26.8,37.6-26.8
	c26.5,0,37.1,20.2,37.1,49.8v117.9H420.9L420.9,413.4z M120.6,86.6c-25.1,0-41.5,16.5-41.5,38.1c0,21.2,15.9,38.1,40.5,38.1h0.5
	c25.6,0,41.5-16.9,41.5-38.1C161,103.2,145.7,86.7,120.6,86.6z"/>
</svg>
