<?xml version="1.0" encoding="utf-8"?>
<!-- Generator: Adobe Illustrator 26.3.1, SVG Export Plug-In . SVG Version: 6.00 Build 0)  -->
<svg version="1.1" id="Capa_1" xmlns:serif="http://www.serif.com/"
	 xmlns="http://www.w3.org/2000/svg" xmlns:xlink="http://www.w3.org/1999/xlink" x="0px" y="0px" viewBox="0 0 48 48"
	 style="enable-background:new 0 0 48 48;" xml:space="preserve">
<style type="text/css">
	.st0{fill-rule:evenodd;clip-rule:evenodd;fill:#EDEDED;}
</style>
<path class="st0" d="M42.1,0C45.4,0,48,2.6,48,5.9v36.3c0,3.2-2.6,5.9-5.9,5.9H5.9C2.6,48,0,45.4,0,42.1V5.9C0,2.6,2.6,0,5.9,0
	C5.9,0,42.1,0,42.1,0z M39.6,18.1c-0.1,3.2-2.4,7.6-6.7,13.1c-4.5,5.8-8.2,8.7-11.3,8.7c-1.9,0-3.5-1.8-4.9-5.3
	c-0.9-3.2-1.8-6.5-2.6-9.7c-1-3.5-2-5.3-3.2-5.3c-0.2,0-1.1,0.5-2.6,1.5l-1.5-2c1.6-1.4,3.2-2.8,4.8-4.3c2.2-1.9,3.8-2.8,4.9-2.9
	c2.6-0.2,4.1,1.5,4.7,5.2c0.6,4,1.1,6.5,1.3,7.5c0.7,3.3,1.5,5,2.4,5c0.7,0,1.7-1.1,3.1-3.3c1.4-2.2,2.1-3.8,2.2-5
	c0.2-1.9-0.5-2.8-2.2-2.8c-0.8,0-1.6,0.2-2.4,0.5c1.6-5.3,4.7-7.8,9.2-7.7C38.2,11.6,39.8,13.8,39.6,18.1z"/>
</svg>
