<?xml version="1.0" encoding="utf-8"?>
<!-- Generator: Adobe Illustrator 26.3.1, SVG Export Plug-In . SVG Version: 6.00 Build 0)  -->
<svg version="1.1" id="Capa_1" xmlns:serif="http://www.serif.com/"
	 xmlns="http://www.w3.org/2000/svg" xmlns:xlink="http://www.w3.org/1999/xlink" x="0px" y="0px" viewBox="0 0 500 500"
	 style="enable-background:new 0 0 500 500;" xml:space="preserve">
<style type="text/css">
	.st0{fill-rule:evenodd;clip-rule:evenodd;fill:#EDEDED;}
</style>
<path class="st0" d="M438.9,0C472.6,0,500,27.4,500,61.1v377.8c0,33.7-27.4,61.1-61.1,61.1H61.1C27.4,500,0,472.6,0,438.9V61.1
	C0,27.4,27.4,0,61.1,0L438.9,0L438.9,0z M418.4,171.5c-4-15.1-16-27-31.1-31.1c-27.4-7.3-137.4-7.3-137.4-7.3s-109.9,0-137.4,7.3
	c-15.1,4-27,16-31.1,31.1c-7.3,27.4-7.3,84.6-7.3,84.6s0,57.2,7.3,84.6c4,15.1,16,27,31.1,31.1c27.4,7.3,137.4,7.3,137.4,7.3
	s109.9,0,137.4-7.3c15.1-4,27-16,31.1-31.1c7.3-27.4,7.3-84.6,7.3-84.6S425.8,198.9,418.4,171.5z M214.8,308.9V203.4l91.3,52.7
	L214.8,308.9L214.8,308.9z"/>
</svg>
